<svg width="5" height="8" viewBox="0 0 5 8" fill="none" xmlns="http://www.w3.org/2000/svg">
<path d="M4.15 5.2C4.15 5.73333 3.96333 6.17667 3.59 6.53C3.21667 6.88333 2.69 7.06 2.01 7.06C1.38333 7.06 0.84 6.95 0.38 6.73V5.94C0.873333 6.2 1.41 6.33 1.99 6.33C2.41667 6.33 2.74667 6.22 2.98 6C3.22 5.78 3.34 5.49333 3.34 5.14C3.34 4.78667 3.20667 4.51667 2.94 4.33C2.68 4.13667 2.30333 4.04 1.81 4.04H1.39V3.35H1.81C2.18333 3.35 2.49667 3.24667 2.75 3.04C3.01 2.82667 3.14 2.54333 3.14 2.19C3.14 1.83667 3.03 1.57 2.81 1.39C2.59 1.21 2.28667 1.12 1.9 1.12C1.44 1.12 1 1.25667 0.58 1.53V0.76C0.966667 0.513333 1.41333 0.39 1.92 0.39C2.56667 0.39 3.06667 0.556667 3.42 0.89C3.78 1.21667 3.96 1.62333 3.96 2.11C3.96 2.46333 3.87 2.78 3.69 3.06C3.51667 3.34 3.25667 3.55 2.91 3.69C3.29 3.77667 3.59 3.95333 3.81 4.22C4.03667 4.48 4.15 4.80667 4.15 5.2Z" fill="white"/>
</svg>
